<svg xmlns="http://www.w3.org/2000/svg" viewBox="0 0 48 48">
  <path fill="#e91e63" d="M12,28c0,2.2-1.8,4-4,4s-4-1.8-4-4s1.8-4,4-4h4V28z"/>
  <path fill="#e91e63" d="M14,28c0-2.2,1.8-4,4-4s4,1.8,4,4v10c0,2.2-1.8,4-4,4s-4-1.8-4-4V28z"/>
  <path fill="#2196f3" d="M18,12c-2.2,0-4-1.8-4-4s1.8-4,4-4s4,1.8,4,4v4H18z"/>
  <path fill="#2196f3" d="M18,14c2.2,0,4,1.8,4,4s-1.8,4-4,4H8c-2.2,0-4-1.8-4-4s1.8-4,4-4H18z"/>
  <path fill="#4caf50" d="M36,18c0-2.2,1.8-4,4-4s4,1.8,4,4s-1.8,4-4,4h-4V18z"/>
  <path fill="#4caf50" d="M34,18c0,2.2-1.8,4-4,4s-4-1.8-4-4V8c0-2.2,1.8-4,4-4s4,1.8,4,4V18z"/>
  <path fill="#ffc107" d="M30,36c2.2,0,4,1.8,4,4s-1.8,4-4,4s-4-1.8-4-4v-4H30z"/>
  <path fill="#ffc107" d="M30,34c-2.2,0-4-1.8-4-4s1.8-4,4-4h10c2.2,0,4,1.8,4,4s-1.8,4-4,4H30z"/>
</svg>

